<svg id="visual" viewBox="0 0 960 300" width="960" height="300" xmlns="http://www.w3.org/2000/svg" xmlns:xlink="http://www.w3.org/1999/xlink" version="1.1"><rect x="0" y="0" width="960" height="300" fill="#FDF5A6"></rect><defs><linearGradient id="grad1_0" x1="68.8%" y1="0%" x2="100%" y2="100%"><stop offset="-14.000000000000007%" stop-color="#fdf5a6" stop-opacity="1"></stop><stop offset="114.00000000000001%" stop-color="#fdf5a6" stop-opacity="1"></stop></linearGradient></defs><defs><linearGradient id="grad2_0" x1="0%" y1="0%" x2="31.3%" y2="100%"><stop offset="-14.000000000000007%" stop-color="#fdf5a6" stop-opacity="1"></stop><stop offset="114.00000000000001%" stop-color="#fdf5a6" stop-opacity="1"></stop></linearGradient></defs><g transform="translate(960, 0)"><path d="M0 270C-41.8 272.7 -83.5 275.5 -103.3 249.4C-123.1 223.4 -121 168.7 -141.4 141.4C-161.9 114.1 -204.9 114.3 -230 95.3C-255.2 76.3 -262.6 38.1 -270 0L0 0Z" fill="#111827"></path></g><g transform="translate(0, 300)"><path d="M0 -270C33.7 -265.4 67.4 -260.7 103.3 -249.4C139.2 -238.2 177.4 -220.2 189.5 -189.5C201.6 -158.8 187.7 -115.2 196.8 -81.5C205.9 -47.8 237.9 -23.9 270 0L0 0Z" fill="#111827"></path></g></svg>