<svg id="visual" viewBox="0 0 900 300" width="900" height="300" xmlns="http://www.w3.org/2000/svg" xmlns:xlink="http://www.w3.org/1999/xlink" version="1.1"><path d="M0 106L21.5 107.2C43 108.3 86 110.7 128.8 116.2C171.7 121.7 214.3 130.3 257.2 137.5C300 144.7 343 150.3 385.8 146C428.7 141.7 471.3 127.3 514.2 127.8C557 128.3 600 143.7 642.8 150.8C685.7 158 728.3 157 771.2 150C814 143 857 130 878.5 123.5L900 117L900 301L878.5 301C857 301 814 301 771.2 301C728.3 301 685.7 301 642.8 301C600 301 557 301 514.2 301C471.3 301 428.7 301 385.8 301C343 301 300 301 257.2 301C214.3 301 171.7 301 128.8 301C86 301 43 301 21.5 301L0 301Z" fill="#111827"></path><path d="M0 197L21.5 190.7C43 184.3 86 171.7 128.8 161.2C171.7 150.7 214.3 142.3 257.2 144.8C300 147.3 343 160.7 385.8 163.2C428.7 165.7 471.3 157.3 514.2 159.5C557 161.7 600 174.3 642.8 175.8C685.7 177.3 728.3 167.7 771.2 166C814 164.3 857 170.7 878.5 173.8L900 177L900 301L878.5 301C857 301 814 301 771.2 301C728.3 301 685.7 301 642.8 301C600 301 557 301 514.2 301C471.3 301 428.7 301 385.8 301C343 301 300 301 257.2 301C214.3 301 171.7 301 128.8 301C86 301 43 301 21.5 301L0 301Z" fill="#1a4d5e"></path><path d="M0 186L21.5 186.2C43 186.3 86 186.7 128.8 189.3C171.7 192 214.3 197 257.2 197.8C300 198.7 343 195.3 385.8 196.2C428.7 197 471.3 202 514.2 206.2C557 210.3 600 213.7 642.8 216.2C685.7 218.7 728.3 220.3 771.2 217C814 213.7 857 205.3 878.5 201.2L900 197L900 301L878.5 301C857 301 814 301 771.2 301C728.3 301 685.7 301 642.8 301C600 301 557 301 514.2 301C471.3 301 428.7 301 385.8 301C343 301 300 301 257.2 301C214.3 301 171.7 301 128.8 301C86 301 43 301 21.5 301L0 301Z" fill="#388884"></path><path d="M0 240L21.5 236.3C43 232.7 86 225.3 128.8 222.5C171.7 219.7 214.3 221.3 257.2 226.7C300 232 343 241 385.8 241.2C428.7 241.3 471.3 232.7 514.2 225.5C557 218.3 600 212.7 642.8 212C685.7 211.3 728.3 215.7 771.2 222.2C814 228.7 857 237.3 878.5 241.7L900 246L900 301L878.5 301C857 301 814 301 771.2 301C728.3 301 685.7 301 642.8 301C600 301 557 301 514.2 301C471.3 301 428.7 301 385.8 301C343 301 300 301 257.2 301C214.3 301 171.7 301 128.8 301C86 301 43 301 21.5 301L0 301Z" fill="#8bc294"></path><path d="M0 259L21.5 256.5C43 254 86 249 128.8 246.2C171.7 243.3 214.3 242.7 257.2 246.7C300 250.7 343 259.3 385.8 259C428.7 258.7 471.3 249.3 514.2 248.5C557 247.7 600 255.3 642.8 261C685.7 266.7 728.3 270.3 771.2 268.8C814 267.3 857 260.7 878.5 257.3L900 254L900 301L878.5 301C857 301 814 301 771.2 301C728.3 301 685.7 301 642.8 301C600 301 557 301 514.2 301C471.3 301 428.7 301 385.8 301C343 301 300 301 257.2 301C214.3 301 171.7 301 128.8 301C86 301 43 301 21.5 301L0 301Z" fill="#fdf5a6"></path></svg>